<svg id="레이어_1" data-name="레이어 1" xmlns="http://www.w3.org/2000/svg" viewBox="0 0 1417.32 443.23"><defs><style>.cls-1{fill:#999;}.cls-2{fill:#f2f2f2;}.cls-3{fill:#b8292d;}.cls-4{fill:#333;}</style></defs><title>대지 1new</title><rect class="cls-1" x="157.7" y="153.44" width="38.59" height="206.47"/><rect class="cls-2" x="14.59" y="309.72" width="325.11" height="98.1"/><circle class="cls-3" cx="177" cy="124.35" r="96.39"/><path class="cls-4" d="M582.23,67.73H541.45v123.7H505.21V67.73H464.43V32.84h117.8Z"/><path class="cls-4" d="M582.25,112.13c0-46.67,36.92-82.46,82.46-82.46s82.46,35.79,82.46,82.46-36.92,82.47-82.46,82.47S582.25,158.8,582.25,112.13Zm128.68,0c0-28.31-20.39-47.12-46.22-47.12S618.5,83.82,618.5,112.13s20.38,47.13,46.21,47.13S710.93,140.46,710.93,112.13Z"/><path class="cls-4" d="M883.12,87.22c0,30.13-24.24,54.37-55.5,54.37H803.83v49.84H767.58V32.84h60C858.88,32.84,883.12,57.08,883.12,87.22Zm-36.24,0c0-11.56-8.16-20.4-19.26-20.4H803.83V107.6h23.79C838.72,107.6,846.88,98.77,846.88,87.22Z"/><path class="cls-4" d="M1016.8,87.22c0,30.13-24.24,54.37-55.5,54.37H937.51v49.84H901.27V32.84h60C992.56,32.84,1016.8,57.08,1016.8,87.22Zm-36.25,0c0-11.56-8.15-20.4-19.25-20.4H937.51V107.6H961.3C972.4,107.6,980.55,98.77,980.55,87.22Z"/><path class="cls-4" d="M1071.19,32.84V191.43H1035V32.84Z"/><path class="cls-4" d="M1223,32.84V191.43H1195.8l-61.17-86.09v86.09h-36.24V32.84h27.18l61.17,86.09V32.84Z"/><path class="cls-4" d="M1407.19,116.66c0,48.49-33.75,77.94-78.15,77.94-49.85,0-85.64-36.7-85.64-82.24,0-46,36.47-82.69,83.14-82.69,30.36,0,56,14.95,69.32,36.25l-30.81,17.67C1358.48,73.17,1344.21,65,1326.31,65c-26.73,0-46.67,19.71-46.67,47.58,0,27,19,46.67,49.84,46.67,21.07,0,34.9-9.29,40.56-24.47h-42.37V103.07h79.52Z"/><path class="cls-4" d="M616.22,338.71c0,44.86-33.31,79.29-77,79.29H475.75V259.42h63.44C582.91,259.42,616.22,293.85,616.22,338.71Zm-34.89,0c0-27.18-17.22-44.4-42.14-44.4H512v88.81h27.19C564.11,383.12,581.33,365.9,581.33,338.71Z"/><path class="cls-4" d="M672.87,259.42V418H636.62V259.42Z"/><path class="cls-4" d="M815.6,313.79c0,30.13-24.24,54.37-55.5,54.37H736.31V418H700.06V259.42h60C791.36,259.42,815.6,283.66,815.6,313.79Zm-36.24,0c0-11.55-8.16-20.39-19.26-20.39H736.31v40.78H760.1C771.2,334.18,779.36,325.35,779.36,313.79Z"/><path class="cls-4" d="M949.28,313.79c0,30.13-24.24,54.37-55.5,54.37H870V418H833.74V259.42h60C925,259.42,949.28,283.66,949.28,313.79Zm-36.24,0c0-11.55-8.16-20.39-19.26-20.39H870v40.78h23.79C904.88,334.18,913,325.35,913,313.79Z"/><path class="cls-4" d="M1003.67,259.42V418H967.42V259.42Z"/><path class="cls-4" d="M1155.46,259.42V418h-27.18l-61.17-86.09V418h-36.24V259.42H1058l61.17,86.09V259.42Z"/><path class="cls-4" d="M1339.67,343.24c0,48.48-33.76,77.94-78.16,77.94-49.84,0-85.63-36.7-85.63-82.24,0-46,36.47-82.69,83.14-82.69,30.35,0,56,14.95,69.32,36.25l-30.81,17.67c-6.57-10.43-20.84-18.58-38.74-18.58-26.73,0-46.67,19.71-46.67,47.58,0,26.95,19,46.66,49.84,46.66,21.07,0,34.89-9.28,40.55-24.46h-42.36V329.65h79.52Z"/></svg>